<svg width="24" height="25" viewBox="0 0 24 25" fill="none" xmlns="http://www.w3.org/2000/svg">
<path d="M3.064 7.6765C3.89601 6.00389 5.17237 4.59783 6.75043 3.61547C8.32849 2.63312 10.1461 2.11318 12 2.11377C14.695 2.11377 16.959 3.11324 18.69 4.7437L15.823 7.63915C14.786 6.63866 13.468 6.12883 12 6.12883C9.395 6.12883 7.19 7.90568 6.405 10.2913C6.205 10.897 6.091 11.5432 6.091 12.2095C6.091 12.8758 6.205 13.5219 6.405 14.1277C7.191 16.5143 9.395 18.2901 12 18.2901C13.345 18.2901 14.49 17.9317 15.386 17.326C15.9054 16.9807 16.3501 16.5327 16.6932 16.009C17.0363 15.4853 17.2706 14.8968 17.382 14.2791H12V10.3741H21.418C21.536 11.0343 21.6 11.7229 21.6 12.4386C21.6 15.5138 20.51 18.1023 18.618 19.859C16.964 21.4016 14.7 22.3052 12 22.3052C10.6866 22.3057 9.38604 22.0449 8.17255 21.5378C6.95905 21.0306 5.85645 20.287 4.92776 19.3494C3.99907 18.4118 3.2625 17.2987 2.76013 16.0736C2.25777 14.8485 1.99948 13.5354 2 12.2095C2 10.58 2.386 9.03942 3.064 7.6765Z" fill="white"/>
</svg>
